<svg width="461" height="461" viewBox="0 0 461 461" fill="none" xmlns="http://www.w3.org/2000/svg">
<circle cx="230.5" cy="230.5" r="230.5" fill="black"/>
<path d="M133 363V86L172.052 104.337V219.038H198.997V169.1L237.658 189.777V311.501L198.997 331.399V259.613H172.052V344.663L133 363Z" fill="white"/>
<path d="M198.997 157.006V118.772L413 224.89L371.215 245.958L308.342 213.966V276.389L267.728 296.286V192.508L198.997 157.006Z" fill="white"/>
<path d="M133 363V86L172.052 104.337V219.038H198.997V169.1L237.658 189.777V311.501L198.997 331.399V259.613H172.052V344.663L133 363Z" stroke="white" stroke-width="0.769784"/>
<path d="M198.997 157.006V118.772L413 224.89L371.215 245.958L308.342 213.966V276.389L267.728 296.286V192.508L198.997 157.006Z" stroke="white" stroke-width="0.769784"/>
</svg>
