<svg width="342" height="338" viewBox="0 0 342 338" fill="none" xmlns="http://www.w3.org/2000/svg">
<path d="M1 337V1L48.4198 23.2423V162.375H81.1395V101.8L128.085 126.882V274.532L81.1395 298.668V211.592H48.4198V314.758L1 337Z" fill="white"/>
<path d="M81.1395 87.1296V40.7521L341 169.473L290.261 195.028L213.915 156.223V231.941L164.598 256.076V130.194L81.1395 87.1296Z" fill="white"/>
<path d="M1 337V1L48.4198 23.2423V162.375H81.1395V101.8L128.085 126.882V274.532L81.1395 298.668V211.592H48.4198V314.758L1 337Z" stroke="white" stroke-width="0.769784"/>
<path d="M81.1395 87.1296V40.7521L341 169.473L290.261 195.028L213.915 156.223V231.941L164.598 256.076V130.194L81.1395 87.1296Z" stroke="white" stroke-width="0.769784"/>
</svg>
